<svg xmlns="http://www.w3.org/2000/svg" viewBox="0 0 1440 1357">
  <defs>
    <linearGradient x1="50%" y1="0%" x2="50%" y2="100%" id="a">
      <stop stop-color="#06101B" offset="0%"/>
      <stop stop-color="#296BAC" offset="100%"/>
    </linearGradient>
    <linearGradient x1="50%" y1="0%" x2="50%" y2="100%" id="b">
      <stop stop-color="#3A98F3" offset="0%"/>
      <stop stop-opacity="0" offset="100%"/>
    </linearGradient>
    <linearGradient x1="50%" y1="0%" x2="50%" y2="100%" id="c">
      <stop stop-color="#3A98F3" offset="0%"/>
      <stop stop-color="#06101B" stop-opacity="0" offset="100%"/>
    </linearGradient>
  </defs>
  <path fill="url(#a)" d="M35 0h1440v1344H35z" transform="translate(-35)"/>
  <path stroke="#3A98F3" stroke-width="5" fill="url(#b)" opacity=".1"
        d="M16.89 1051.348l181.22-239.63 231.57 178.848L731.594 657.62 893.16 893.978l418.965-405.344 171.05 295.273v567.527H16.894z"
        transform="translate(-35)"/>
  <path stroke="#3A98F3" stroke-width="5" fill="url(#c)" opacity=".1"
        d="M9.582 779.566L226.66 596.648 431.8 744.973l335.42-449.977 424.483 499.957 293.223-274.387v833.456H7.286z"
        transform="translate(-35)"/>
  <path stroke="#3A98F3" stroke-width="5" fill="url(#c)" opacity=".1"
        d="M15.008 484.824L227.473 662.18 413.555 473.7l407.793 176.777 179.586-286.414 341.26 688.074 158.97-211.344v513.475H.064z"
        transform="translate(-35)"/>
</svg>
