<?xml version="1.0" encoding="UTF-8" standalone="no"?>
<svg
   xmlns:dc="http://purl.org/dc/elements/1.1/"
   xmlns:cc="http://creativecommons.org/ns#"
   xmlns:rdf="http://www.w3.org/1999/02/22-rdf-syntax-ns#"
   xmlns:svg="http://www.w3.org/2000/svg"
   xmlns="http://www.w3.org/2000/svg"
   id="svg48"
   version="1.1"
   viewBox="0 0 8.2020359 9.9144917"
   height="9.9144917mm"
   width="8.2020359mm">
  <defs
     id="defs42" />
  <metadata
     id="metadata45">
    <rdf:RDF>
      <cc:Work
         rdf:about="">
        <dc:format>image/svg+xml</dc:format>
        <dc:type
           rdf:resource="http://purl.org/dc/dcmitype/StillImage" />
        <dc:title></dc:title>
      </cc:Work>
    </rdf:RDF>
  </metadata>
  <g
     transform="translate(-118.36329,-101.54283)"
     id="layer1">
    <path
       id="Control-Icon"
       d="m 126.27746,103.68776 c 0.15997,0.096 0.29323,0.32499 0.2877,0.51166 v 4.1356 c 0,0.18666 -0.12773,0.41567 -0.2877,0.51165 l -3.52267,2.07309 c -0.15997,0.096 -0.42121,0.096 -0.58094,0 l -0.33316,-0.19653 c -0.12533,-0.0741 -0.16767,-0.2355 -0.0948,-0.36155 l 0.54846,-0.94874 c 0.0924,-0.15973 0.29877,-0.36613 0.4585,-0.4585 l 0.002,-0.001 1.84913,-1.0873 c 0.15468,-0.0905 0.28795,-0.32499 0.28795,-0.51142 v -2.1746 c 0,-0.18643 -0.12798,-0.41568 -0.28795,-0.51142 l -1.84913,-1.0873 c -0.15997,-0.096 -0.42121,-0.096 -0.58094,0 l -1.84938,1.08729 c -0.15468,0.0957 -0.2877,0.32498 -0.2877,0.51141 v 2.18519 c 0,0.006 0,0.012 2.4e-4,0.0183 0.0132,0.29034 -0.0322,0.58045 -0.17777,0.83183 l -0.45056,0.77819 c -0.0739,0.12774 -0.23767,0.17055 -0.36468,0.0957 l -0.39306,-0.23189 c -0.15444,-0.0957 -0.28771,-0.32499 -0.28771,-0.51166 v -4.14089 c 0,-0.19196 0.12798,-0.42097 0.28771,-0.51695 l 3.5229,-2.07309 c 0.15973,-0.096 0.42097,-0.096 0.58094,0 z m -3.38797,3.10859 c 0.1606,0.0946 0.21556,0.30724 0.12667,0.47329 l -2.29195,4.0199 c -0.0577,0.10707 -0.16889,0.16674 -0.28614,0.16777 -0.0584,5e-4 -0.11714,-0.0151 -0.17051,-0.0466 l -1.00615,-0.59336 c -0.16037,-0.0946 -0.21556,-0.30724 -0.1211,-0.46804 l 2.29194,-4.0199 c 0.0575,-0.10708 0.1689,-0.16675 0.2859,-0.16777 0.0586,-5e-4 0.11715,0.0151 0.17076,0.0466 z"
       style="fill:#3a98f3;stroke-width:0.26458332" />
  </g>
</svg>
