<svg xmlns="http://www.w3.org/2000/svg" viewBox="0 0 26.458784 31.98044">
  <path fill="#3a98f3" d="M25.53 6.92c.515.31.944 1.048.928 1.65v13.34c0 .603-.413 1.34-.93 1.65L14.163 30.25c-.51.31-1.355.31-1.87 0l-1.075-.635c-.404-.24-.54-.758-.304-1.162l1.768-3.063c.3-.516.97-1.18 1.485-1.477h.006l5.97-3.517c.492-.29.924-1.045.924-1.645v-7.016c0-.6-.42-1.34-.935-1.645l-5.96-3.513c-.515-.313-1.36-.313-1.87 0L6.323 10.08c-.5.31-.93 1.05-.93 1.646v7.116c.042.935-.103 1.87-.574 2.677l-1.452 2.515c-.24.41-.768.55-1.178.304l-1.264-.743C.43 23.284 0 22.547 0 21.942V8.587c0-.623.413-1.36.93-1.67L12.29.23c.516-.31 1.362-.31 1.878 0zM14.6 16.95c.516.3.697.99.41 1.524L7.613 31.442c-.184.345-.542.535-.92.538-.193 0-.376-.048-.547-.148L2.894 29.92c-.516-.307-.694-.994-.387-1.517l7.387-12.96c.187-.346.548-.54.926-.543.187-.006.377.045.548.145z"/>
</svg>
