<?xml version="1.0" encoding="UTF-8" standalone="no"?>
<svg width="125px" height="38px" viewBox="0 0 125 38" version="1.1" xmlns="http://www.w3.org/2000/svg" xmlns:xlink="http://www.w3.org/1999/xlink">
    <!-- Generator: Sketch 43.1 (39012) - http://www.bohemiancoding.com/sketch -->
    <title>Control Logo</title>
    <desc>Created with Sketch.</desc>
    <defs></defs>
    <g id="Homepage" stroke="none" stroke-width="1" fill="none" fill-rule="evenodd">
        <g id="Home" transform="translate(-250.000000, -20.000000)">
            <g id="Header" transform="translate(250.000000, 20.000000)">
                <g id="Control-Logo">
                    <g id="control-wordmark" transform="translate(39.880893, 6.526535)" fill="#FFFFFF">
                        <path d="M11.2593027,9.76940687 C11.1384515,9.93257024 11.0176003,10.0549428 10.8967491,10.1365245 C10.7758979,10.2181061 10.614763,10.2792924 10.3932025,10.2792924 C10.1917838,10.2792924 9.99036519,10.2385016 9.82923027,10.1365245 C9.66809535,10.0345473 9.46667669,9.93257024 9.26525804,9.81019771 C9.06383939,9.68782518 8.822137,9.58584807 8.54015089,9.48387097 C8.25816477,9.38189386 7.91575306,9.34110302 7.49277389,9.34110302 C6.98922726,9.34110302 6.54610622,9.44308012 6.16341078,9.62663892 C5.78071534,9.81019771 5.47858736,10.0957336 5.23688498,10.4424558 C4.9951826,10.7891779 4.81390581,11.2378772 4.69305462,11.7477627 C4.57220342,12.2576483 4.51177783,12.8491155 4.51177783,13.4813736 C4.51177783,14.8274714 4.77362208,15.8880333 5.27716871,16.601873 C5.80085721,17.3361082 6.50582249,17.7032258 7.41220643,17.7032258 C7.8956112,17.7032258 8.27830664,17.6420395 8.56029275,17.519667 C8.84227887,17.3972945 9.08398125,17.2545265 9.2853999,17.1117586 C9.48681856,16.9689906 9.66809535,16.8262227 9.82923027,16.7038502 C9.99036519,16.5814776 10.2119257,16.5202914 10.4536281,16.5202914 C10.7758979,16.5202914 11.0377422,16.6426639 11.1988771,16.8874089 L12.407389,18.3966701 C11.9844099,18.9065557 11.521147,19.3144641 11.0377422,19.6203954 C10.5543374,19.9263267 10.0709327,20.1710718 9.56738602,20.3546306 C9.06383939,20.5381894 8.56029275,20.6605619 8.05674612,20.7217482 C7.55319949,20.7829344 7.06979472,20.8237253 6.58638995,20.8237253 C5.74043161,20.8237253 4.91461513,20.6605619 4.14922425,20.3342352 C3.36369151,20.0079084 2.67886809,19.5388137 2.09475399,18.9065557 C1.5106399,18.2742976 1.047377,17.519667 0.68482342,16.601873 C0.34241171,15.6840791 0.161134922,14.664308 0.161134922,13.4813736 C0.161134922,12.4616025 0.30212798,11.5030177 0.604255959,10.6260146 C0.906383939,9.74901145 1.34950498,8.97398543 1.93361907,8.32133195 C2.51773316,7.66867846 3.24284031,7.15879292 4.10894052,6.79167534 C4.97504073,6.42455775 5.982134,6.24099896 7.13022032,6.24099896 C8.21788104,6.24099896 9.18469058,6.42455775 10.0105071,6.77127992 C10.8363235,7.11800208 11.5815725,7.64828304 12.2462541,8.32133195 L11.2593027,9.76940687 L11.2593027,9.76940687 Z" id="Shape"></path>
                        <path d="M20.3030002,6.20020812 C21.3705191,6.20020812 22.3373286,6.36337149 23.2034288,6.71009365 C24.069529,7.05681582 24.8147781,7.52591051 25.4391759,8.15816857 C26.0635737,8.79042664 26.5469785,9.54505723 26.8893902,10.4424558 C27.2318019,11.3398543 27.4130787,12.33923 27.4130787,13.4609781 C27.4130787,14.5827263 27.2318019,15.6024974 26.8893902,16.5202914 C26.5469785,17.4176899 26.0635737,18.1927159 25.4391759,18.824974 C24.8147781,19.457232 24.069529,19.9467222 23.2034288,20.2934443 C22.3373286,20.6401665 21.3705191,20.8033299 20.3030002,20.8033299 C19.2354814,20.8033299 18.2686718,20.6401665 17.3824298,20.2934443 C16.4961877,19.9467222 15.7509387,19.457232 15.1265408,18.824974 C14.502143,18.1927159 13.9985964,17.4176899 13.6561847,16.5202914 C13.313773,15.6228928 13.1324962,14.6031217 13.1324962,13.4609781 C13.1324962,12.33923 13.313773,11.3398543 13.6561847,10.4424558 C13.9985964,9.54505723 14.4820012,8.79042664 15.1265408,8.15816857 C15.7509387,7.52591051 16.5163295,7.05681582 17.3824298,6.71009365 C18.24853,6.36337149 19.2354814,6.20020812 20.3030002,6.20020812 Z M20.3030002,17.6420395 C21.2698098,17.6420395 21.974775,17.2953174 22.4178961,16.601873 C22.881159,15.9084287 23.1027195,14.8682622 23.1027195,13.4609781 C23.1027195,12.0536941 22.881159,11.0135276 22.4178961,10.3404787 C21.9546332,9.66742976 21.2496679,9.3207076 20.3030002,9.3207076 C19.3160488,9.3207076 18.5909417,9.66742976 18.1276788,10.3404787 C17.6644159,11.0135276 17.4428554,12.0740895 17.4428554,13.4609781 C17.4428554,14.8682622 17.6644159,15.9084287 18.1276788,16.601873 C18.5909417,17.2953174 19.3160488,17.6420395 20.3030002,17.6420395 Z" id="Shape"></path>
                        <path d="M33.3750708,7.93381894 C33.6369151,7.68907388 33.9189012,7.44432882 34.2008873,7.21997919 C34.4828734,6.99562955 34.8051432,6.81207076 35.1274131,6.66930281 C35.4496829,6.52653486 35.8122365,6.40416233 36.1949319,6.32258065 C36.5776274,6.24099896 37.0006066,6.20020812 37.4437276,6.20020812 C38.2091185,6.20020812 38.8738,6.34297607 39.478056,6.60811655 C40.0621701,6.87325702 40.5657167,7.24037461 40.968554,7.72986472 C41.3713913,8.21935484 41.6735193,8.77003122 41.8950798,9.44308012 C42.0964985,10.0957336 42.1972078,10.8095734 42.1972078,11.5845994 L42.1972078,20.5789802 L38.0278417,20.5789802 L38.0278417,11.564204 C38.0278417,10.8707596 37.8667068,10.3404787 37.5645788,9.95296566 C37.2423089,9.56545265 36.779046,9.38189386 36.1747901,9.38189386 C35.7115272,9.38189386 35.288548,9.48387097 34.8857107,9.66742976 C34.4828734,9.87138398 34.100178,10.1365245 33.7174825,10.4628512 L33.7174825,20.5585848 L29.5481164,20.5585848 L29.5481164,6.40416233 L32.1262752,6.40416233 C32.6499637,6.40416233 32.9923754,6.64890739 33.1535103,7.11800208 L33.3750708,7.93381894 L33.3750708,7.93381894 Z" id="Shape"></path>
                        <path d="M49.6899817,20.7829344 C49.0253001,20.7829344 48.4411861,20.6809573 47.9376394,20.4973985 C47.4340928,20.3138398 47.0111136,20.0283039 46.64856,19.6611863 C46.3061483,19.2940687 46.0443041,18.8657648 45.8630273,18.3558793 C45.6817505,17.8459938 45.601183,17.274922 45.601183,16.6426639 L45.601183,9.34110302 L44.412813,9.34110302 C44.1912525,9.34110302 44.0099757,9.27991675 43.8689826,9.1371488 C43.7078477,8.99438085 43.6474221,8.79042664 43.6474221,8.52528616 L43.6474221,6.87325702 L45.8630273,6.44495317 L46.6888438,2.99812695 C46.7895531,2.5698231 47.1118229,2.34547347 47.6153696,2.34547347 L49.790691,2.34547347 L49.790691,6.48574402 L53.2550919,6.48574402 L53.2550919,9.38189386 L49.790691,9.38189386 L49.790691,16.4183143 C49.790691,16.744641 49.8712585,17.0097815 50.0323934,17.2341311 C50.1935283,17.4380853 50.4150889,17.5604579 50.7172168,17.5604579 C50.8783518,17.5604579 50.9992029,17.5400624 51.0999123,17.519667 C51.2006216,17.4788762 51.3013309,17.4584807 51.3617565,17.4176899 C51.442324,17.3768991 51.5027496,17.3361082 51.583317,17.3157128 C51.6437426,17.274922 51.7243101,17.274922 51.8250194,17.274922 C51.9458706,17.274922 52.0465799,17.2953174 52.1271474,17.3565036 C52.2077149,17.4176899 52.2882823,17.4992716 52.3688498,17.6420395 L53.6377873,19.6407908 C53.0939569,20.0486993 52.489701,20.3546306 51.8250194,20.5585848 C51.1200541,20.6809573 50.4150889,20.7829344 49.6899817,20.7829344 L49.6899817,20.7829344 Z" id="Shape"></path>
                        <path d="M58.9552397,8.58647242 C59.3782189,7.83184183 59.8817655,7.21997919 60.4457378,6.79167534 C61.00971,6.36337149 61.6542497,6.13902185 62.3793568,6.13902185 C63.0037547,6.13902185 63.5274432,6.2817898 63.9101386,6.58772112 L63.6482944,9.7082206 C63.6080106,9.91217482 63.5274432,10.0549428 63.4267338,10.116129 C63.3260245,10.1977107 63.1850315,10.2181061 63.0037547,10.2181061 C62.9231872,10.2181061 62.8426197,10.2181061 62.7217686,10.1977107 C62.6009174,10.1977107 62.4800662,10.1773153 62.359215,10.1569199 C62.2383638,10.1365245 62.0973707,10.1365245 61.9765195,10.116129 C61.8556683,10.0957336 61.7348172,10.0957336 61.613966,10.0957336 C61.00971,10.0957336 60.5061634,10.258897 60.1436098,10.5852237 C59.7810562,10.9115505 59.4789282,11.3602497 59.217084,11.951717 L59.217084,20.5585848 L55.0477179,20.5585848 L55.0477179,6.40416233 L57.5251673,6.40416233 C57.726586,6.40416233 57.9078627,6.42455775 58.0488558,6.4653486 C58.1898489,6.50613944 58.3107001,6.5673257 58.3912675,6.62851197 C58.4919768,6.71009365 58.5524024,6.81207076 58.612828,6.93444329 C58.6531118,7.05681582 58.7135374,7.21997919 58.7336792,7.40353798 L58.9552397,8.58647242 L58.9552397,8.58647242 Z" id="Shape"></path>
                        <path d="M71.5439056,6.20020812 C72.6114244,6.20020812 73.578234,6.36337149 74.4443342,6.71009365 C75.3104344,7.05681582 76.0556834,7.52591051 76.6800812,8.15816857 C77.304479,8.79042664 77.7878838,9.54505723 78.1302955,10.4424558 C78.4727072,11.3398543 78.653984,12.33923 78.653984,13.4609781 C78.653984,14.5827263 78.4727072,15.6024974 78.1302955,16.5202914 C77.7878838,17.4176899 77.304479,18.1927159 76.6800812,18.824974 C76.0556834,19.457232 75.3104344,19.9467222 74.4443342,20.2934443 C73.578234,20.6401665 72.6114244,20.8033299 71.5439056,20.8033299 C70.4763867,20.8033299 69.5095772,20.6401665 68.6233351,20.2934443 C67.7572349,19.9467222 66.991844,19.457232 66.3674462,18.824974 C65.7430483,18.1927159 65.2395017,17.4176899 64.89709,16.5202914 C64.5546783,15.6228928 64.3734015,14.6031217 64.3734015,13.4609781 C64.3734015,12.33923 64.5546783,11.3398543 64.89709,10.4424558 C65.2395017,9.54505723 65.7229065,8.79042664 66.3674462,8.15816857 C67.0119859,7.52591051 67.7572349,7.05681582 68.6233351,6.71009365 C69.4894353,6.36337149 70.4562448,6.20020812 71.5439056,6.20020812 Z M71.5439056,17.6420395 C72.5107151,17.6420395 73.2156804,17.2953174 73.6588014,16.601873 C74.1220643,15.9084287 74.3436248,14.8682622 74.3436248,13.4609781 C74.3436248,12.0536941 74.1220643,11.0135276 73.6588014,10.3404787 C73.1955385,9.66742976 72.4905732,9.3207076 71.5439056,9.3207076 C70.5569542,9.3207076 69.831847,9.66742976 69.3685841,10.3404787 C68.9053212,11.0135276 68.6837607,12.0740895 68.6837607,13.4609781 C68.6837607,14.8682622 68.9053212,15.9084287 69.3685841,16.601873 C69.831847,17.2953174 70.5368123,17.6420395 71.5439056,17.6420395 Z" id="Shape"></path>
                        <polygon id="Shape" points="84.938246 0.122372529 84.938246 20.5585848 80.7688799 20.5585848 80.7688799 0.122372529"></polygon>
                    </g>
                    <path d="M29.9119932,8.10737755 C30.5165973,8.47014002 31.0202826,9.33567855 30.9993714,10.0412016 L30.9993714,25.6718091 C30.9993714,26.3773321 30.5165973,27.2428706 29.9119932,27.6056331 L16.5979741,35.4409388 C15.99337,35.8037012 15.0060015,35.8037012 14.4023065,35.4409388 L13.1430934,34.6981394 C12.6694111,34.4181123 12.5093956,33.8080531 12.7848769,33.3316432 L14.8578053,29.7458407 C15.20693,29.1421458 15.9870057,28.3620701 16.5907007,28.0129453 L16.5979741,28.0083994 L23.586834,23.8989098 C24.1714362,23.5570584 24.6751215,22.6706088 24.6751215,21.965995 L24.6751215,13.7470157 C24.6751215,13.0424018 24.1914382,12.1759541 23.586834,11.8141008 L16.5979741,7.7046112 C15.99337,7.34184873 15.0060015,7.34184873 14.4023065,7.7046112 L7.41253741,11.8141008 C6.82793523,12.1759541 6.32515917,13.0424018 6.32515917,13.7470157 L6.32515917,22.0059988 C6.32515917,22.0287283 6.32515917,22.0514578 6.32606835,22.0750964 C6.3760732,23.1724757 6.20423835,24.2689457 5.65418498,25.2190379 L3.95129248,28.1602323 C3.67217449,28.6430064 3.0530235,28.8048403 2.57297692,28.5220856 L1.08737823,27.6456369 C0.503685235,27.2837837 0,26.417336 0,25.7118129 L0,10.0612035 C0,9.33567855 0.483683294,8.47014002 1.08737823,8.10737755 L14.4023065,0.272071853 C15.0060015,-0.0906906177 15.99337,-0.0906906177 16.5979741,0.272071853 L29.9119932,8.10737755 Z M17.1070607,19.8563734 C17.7140737,20.2138578 17.9217803,21.0176209 17.5858076,21.6451922 L8.92335108,36.8385155 C8.70530388,37.2432062 8.28500075,37.4687256 7.84187675,37.4725927 C7.62122279,37.4745183 7.3991292,37.4155383 7.19739691,37.2963715 L3.3946391,35.053761 C2.78853418,34.6962686 2.57991947,33.8925135 2.93695164,33.2847614 L11.5994082,18.0914381 C11.8165474,17.6867553 12.2377585,17.4612279 12.6799745,17.4573688 C12.9015365,17.4554352 13.122722,17.5144232 13.3253624,17.6335821 L17.1070607,19.8563734 Z" id="Control-Icon" fill="#3A98F3"></path>
                </g>
            </g>
        </g>
    </g>
</svg>