<svg xmlns="http://www.w3.org/2000/svg" viewBox="0 0 125 38">
  <path fill="#FFFFFF" d="M51.14 16.296c-.12.163-.242.285-.362.367-.12.082-.282.143-.504.143-.2 0-.403-.04-.564-.143-.16-.102-.362-.204-.564-.326-.2-.123-.443-.225-.725-.327-.28-.102-.623-.142-1.046-.142-.504 0-.947.102-1.33.285-.382.184-.685.47-.926.816-.242.346-.423.794-.544 1.304-.12.51-.18 1.102-.18 1.734 0 1.346.26 2.407.764 3.12.524.735 1.23 1.102 2.135 1.102.484 0 .866-.06 1.148-.184.283-.122.525-.265.726-.408.202-.142.383-.285.544-.408.16-.122.383-.183.625-.183.322 0 .584.122.745.367l1.208 1.51c-.423.51-.886.917-1.37 1.223-.483.306-.966.55-1.47.734-.503.185-1.007.307-1.51.368-.504.06-.987.102-1.47.102-.847 0-1.672-.163-2.438-.49-.785-.326-1.47-.795-2.054-1.427-.584-.632-1.048-1.387-1.41-2.305-.343-.917-.524-1.937-.524-3.12 0-1.02.14-1.978.443-2.855.302-.877.745-1.652 1.33-2.305.584-.653 1.31-1.163 2.175-1.53.866-.367 1.873-.55 3.02-.55 1.09 0 2.056.183 2.88.53.827.347 1.572.877 2.237 1.55l-.987 1.448zM60.184 12.727c1.067 0 2.034.163 2.9.51.866.346 1.612.815 2.236 1.448.624.632 1.108 1.387 1.45 2.284.343.896.524 1.896.524 3.018 0 1.12-.18 2.14-.524 3.06-.342.896-.826 1.67-1.45 2.304-.624.632-1.37 1.12-2.236 1.468-.866.347-1.833.51-2.9.51-1.068 0-2.034-.163-2.92-.51-.887-.347-1.632-.836-2.257-1.468-.624-.633-1.128-1.408-1.47-2.305-.342-.898-.524-1.917-.524-3.06 0-1.12.182-2.12.524-3.018.342-.898.826-1.653 1.47-2.285.625-.633 1.39-1.102 2.256-1.448.866-.347 1.853-.51 2.92-.51zm0 11.442c.967 0 1.672-.348 2.115-1.042.462-.693.684-1.733.684-3.14 0-1.408-.222-2.448-.685-3.12-.464-.674-1.17-1.02-2.116-1.02-.987 0-1.712.346-2.175 1.02-.465.672-.686 1.733-.686 3.12 0 1.407.22 2.447.685 3.14.462.694 1.187 1.04 2.174 1.04zM73.256 14.46c.262-.244.544-.49.826-.713.282-.225.604-.408.926-.55.323-.144.685-.266 1.068-.348.383-.082.805-.123 1.25-.123.764 0 1.43.143 2.033.408.583.265 1.087.632 1.49 1.12.402.49.704 1.042.926 1.715.2.652.302 1.366.302 2.14v8.996h-4.17V18.09c0-.693-.16-1.223-.463-1.61-.322-.388-.785-.572-1.39-.572-.463 0-.886.102-1.288.286-.403.204-.786.47-1.17.795v10.095H69.43V12.93h2.577c.524 0 .866.245 1.027.715l.222.815zM89.57 27.31c-.664 0-1.248-.103-1.75-.286-.505-.184-.928-.47-1.29-.836-.343-.367-.605-.796-.786-1.306-.18-.51-.262-1.08-.262-1.713v-7.302h-1.188c-.222 0-.403-.062-.544-.204-.16-.143-.222-.347-.222-.612V13.4l2.216-.43.826-3.445c.1-.43.423-.653.926-.653h2.176v4.14h3.464v2.896h-3.464v7.037c0 .326.08.59.24.816.162.205.384.327.686.327.16 0 .282-.02.383-.04.102-.042.202-.062.263-.103.08-.04.14-.08.22-.102.062-.04.142-.04.243-.04.12 0 .22.02.302.08.08.062.16.144.242.287l1.27 1.997c-.545.408-1.15.714-1.814.918-.705.122-1.41.224-2.135.224zM98.836 15.113c.423-.755.927-1.366 1.49-1.795.565-.428 1.21-.652 1.934-.652.625 0 1.148.142 1.53.448l-.26 3.12c-.04.205-.122.347-.222.41-.1.08-.242.1-.423.1-.08 0-.16 0-.282-.02-.12 0-.242-.02-.363-.04-.12-.02-.262-.02-.383-.04-.12-.022-.24-.022-.362-.022-.604 0-1.108.163-1.47.49-.363.326-.665.775-.927 1.366v8.607h-4.17V12.93h2.478c.2 0 .383.02.524.062.14.04.262.102.342.163.1.082.16.184.222.306.04.123.1.287.12.47l.222 1.183zM111.425 12.727c1.067 0 2.034.163 2.9.51.866.346 1.612.815 2.236 1.448.625.632 1.11 1.387 1.45 2.284.344.896.525 1.896.525 3.018 0 1.12-.18 2.14-.524 3.06-.34.896-.825 1.67-1.45 2.304-.623.632-1.37 1.12-2.235 1.468-.866.347-1.833.51-2.9.51-1.068 0-2.035-.163-2.92-.51-.867-.347-1.632-.836-2.257-1.468-.624-.633-1.128-1.408-1.47-2.305-.342-.898-.524-1.917-.524-3.06 0-1.12.182-2.12.524-3.018.342-.898.826-1.653 1.47-2.285.645-.633 1.39-1.102 2.256-1.448.866-.347 1.833-.51 2.92-.51zm0 11.442c.967 0 1.672-.348 2.115-1.042.463-.693.685-1.733.685-3.14 0-1.408-.222-2.448-.685-3.12-.464-.674-1.17-1.02-2.115-1.02-.987 0-1.712.346-2.176 1.02-.464.672-.685 1.733-.685 3.12 0 1.407.22 2.447.684 3.14.463.694 1.168 1.04 2.175 1.04zM124.82 6.65v20.435h-4.17V6.65"/>
  <path fill="#3A98F3" d="M29.912 8.107c.605.363 1.108 1.23 1.087 1.934v15.632c0 .705-.483 1.57-1.088 1.934L16.598 35.44c-.605.364-1.592.364-2.196 0l-1.26-.742c-.473-.28-.633-.89-.357-1.366l2.073-3.586c.35-.604 1.13-1.384 1.733-1.733l.008-.005 6.99-4.11c.583-.34 1.087-1.227 1.087-1.932v-8.22c0-.704-.484-1.57-1.088-1.932l-6.99-4.11c-.604-.362-1.59-.362-2.195 0l-6.99 4.11c-.584.362-1.087 1.228-1.087 1.933v8.328c.05 1.097-.12 2.194-.67 3.144L3.95 28.16c-.278.483-.897.645-1.377.362l-1.486-.876C.504 27.284 0 26.416 0 25.712v-15.65c0-.726.484-1.592 1.087-1.955L14.402.272c.604-.363 1.59-.363 2.196 0l13.314 7.835zm-12.805 11.75c.607.357.815 1.16.48 1.788L8.922 36.84c-.218.403-.638.63-1.08.633-.222.002-.444-.057-.646-.177l-3.802-2.242c-.606-.358-.815-1.16-.458-1.77L11.6 18.092c.217-.403.638-.63 1.08-.633.222-.002.443.057.645.177l3.782 2.222z"/>
</svg>
